<?xml version="1.0" standalone="no"?>
<!DOCTYPE svg PUBLIC "-//W3C//DTD SVG 20010904//EN"
 "http://www.w3.org/TR/2001/REC-SVG-20010904/DTD/svg10.dtd">
<svg version="1.0" xmlns="http://www.w3.org/2000/svg"
 width="24.000000pt" height="24.000000pt" viewBox="0 0 24.000000 24.000000"
 preserveAspectRatio="xMidYMid meet">

<g transform="translate(0.000000,24.000000) scale(0.100000,-0.100000)"
fill="#000000" stroke="none">
<path d="M50 192 c0 -22 9 -36 35 -56 l35 -27 35 27 c26 19 35 34 35 56 l0 29
-35 -26 -34 -27 -36 27 -35 27 0 -30z"/>
<path d="M51 103 c0 -19 11 -37 34 -56 l34 -28 36 28 c25 20 35 36 35 56 0 31
-8 30 -47 -6 l-23 -20 -22 20 c-40 36 -48 37 -47 6z"/>
</g>
</svg>
