<?xml version="1.0" standalone="no"?>
<!DOCTYPE svg PUBLIC "-//W3C//DTD SVG 20010904//EN"
 "http://www.w3.org/TR/2001/REC-SVG-20010904/DTD/svg10.dtd">
<svg version="1.0" xmlns="http://www.w3.org/2000/svg"
 width="32.000000pt" height="32.000000pt" viewBox="0 0 32.000000 32.000000"
 preserveAspectRatio="xMidYMid meet">

<g transform="translate(0.000000,32.000000) scale(0.100000,-0.100000)"
fill="#000000" stroke="none">
<path d="M97 267 c-50 -46 -57 -56 -57 -89 0 -21 5 -38 10 -38 6 0 33 21 60
46 l50 47 50 -47 c27 -25 54 -46 60 -46 5 0 10 18 10 39 0 35 -6 44 -59 90
-32 28 -60 51 -62 51 -2 -1 -30 -24 -62 -53z"/>
<path d="M98 129 c-49 -43 -58 -56 -58 -84 0 -19 4 -36 9 -39 5 -3 32 15 60
40 l51 46 51 -46 c28 -25 55 -43 60 -40 5 3 9 20 9 39 0 28 -9 41 -57 84 -31
28 -59 51 -62 51 -4 0 -32 -23 -63 -51z"/>
</g>
</svg>
